<svg width="20" height="20" viewBox="0 0 20 20" fill="none" xmlns="http://www.w3.org/2000/svg">
    <g clip-path="url(#kw83lp4oca)">
        <path d="M2 10a8 8 0 0 1 8-8 8 8 0 0 1 8 8 8 8 0 0 1-8 8 8 8 0 0 1-8-8zm5.469-1.497L8.94 9.972l-1.472 1.497c-.29.293-.29.769 0 1.034.293.319.769.319 1.034 0l1.469-1.444 1.497 1.444c.293.319.769.319 1.034 0 .319-.265.319-.74 0-1.034L11.06 9.972l1.444-1.469c.319-.265.319-.74 0-1.034-.265-.29-.74-.29-1.034 0L9.972 8.94 8.503 7.469c-.265-.29-.74-.29-1.034 0-.29.293-.29.769 0 1.034z" fill="#EE4F45"/>
    </g>
    <defs>
        <clipPath id="kw83lp4oca">
            <path fill="#fff" transform="translate(2 2)" d="M0 0h16v16H0z"/>
        </clipPath>
    </defs>
</svg>
